<?xml version="1.0" encoding="UTF-8"?>
<svg width="24px" height="24px" viewBox="0 0 24 24" version="1.1" xmlns="http://www.w3.org/2000/svg">
    <path d="M19.952,5.672c-1.904-1.531-4.916-1.79-5.044-1.801c-0.201-0.017-0.392,0.097-0.474,0.281 c-0.006,0.012-0.089,0.21-0.116,0.543c1.199,0.203,2.498,0.602,3.68,1.38c0.22,0.145,0.275,0.439,0.127,0.656 c-0.092,0.135-0.242,0.203-0.392,0.203c-0.09,0-0.18-0.025-0.262-0.077c-1.76-1.161-4.06-1.348-4.717-1.366 c-0.656,0.018-2.958,0.205-4.717,1.366c-0.082,0.052-0.172,0.077-0.262,0.077c-0.15,0-0.301-0.068-0.392-0.203 C7.236,6.469,7.29,6.175,7.51,6.03c1.182-0.778,2.481-1.177,3.68-1.38C11.063,4.317,10.98,4.119,10.974,4.107 c-0.082-0.184-0.273-0.298-0.474-0.281C10.372,3.837,7.36,4.096,5.456,5.627C4.664,6.325,2.271,11.958,2.271,14.686 c0,0.23,0.039,0.57,0.222,0.81C3.666,16.864,6.036,17.382,7.435,17.5c0.002,0,0.003,0,0.005,0c0.182,0,0.351-0.091,0.451-0.244 l1.138-1.757c-2.271-0.374-3.187-1.248-3.253-1.316c-0.232-0.238-0.228-0.618,0.008-0.851c0.236-0.234,0.618-0.233,0.85,0.005 c0.023,0.023,1.706,1.639,5.866,1.639c4.161,0,5.844-1.616,5.866-1.639c0.234-0.233,0.612-0.238,0.85-0.005 c0.236,0.233,0.24,0.613,0.008,0.851c-0.066,0.068-0.982,0.942-3.253,1.316l1.137,1.757c0.101,0.154,0.271,0.244,0.451,0.244 c0.002,0,0.003,0,0.005,0c1.399-0.118,3.769-0.636,4.943-2.004c0.183-0.24,0.222-0.58,0.222-0.81 C21.728,11.958,19.336,6.325,18.544,5.627z" fill="#FFFFFF"/>
</svg> 